<svg width="30" height="31" viewBox="0 0 30 31" fill="none" xmlns="http://www.w3.org/2000/svg">
<g filter="url(#filter0_d)">
<path d="M13.8102 1.25679C14.1778 0.35595 15.3798 0.35595 15.7474 1.25679L17.9709 6.70691C18.1239 7.08184 18.4565 7.33872 18.8393 7.37748L24.4034 7.94099C25.3231 8.03413 25.6945 9.24913 25.0019 9.89898L20.8122 13.8309C20.524 14.1014 20.3969 14.517 20.4805 14.9158L21.6957 20.7143C21.8965 21.6727 20.9241 22.4236 20.1285 21.9244L15.3155 18.9043C14.9844 18.6966 14.5731 18.6966 14.2421 18.9043L9.42906 21.9244C8.63351 22.4236 7.66109 21.6727 7.86194 20.7143L9.07707 14.9158C9.16066 14.517 9.0336 14.1014 8.74538 13.8309L4.55562 9.89898C3.86311 9.24913 4.23453 8.03413 5.15421 7.94099L10.7182 7.37748C11.101 7.33872 11.4337 7.08184 11.5866 6.70691L13.8102 1.25679Z" fill="#FFC542"/>
</g>
<defs>
<filter id="filter0_d" x="0.197266" y="0.581161" width="29.163" height="29.5023" filterUnits="userSpaceOnUse" color-interpolation-filters="sRGB">
<feFlood flood-opacity="0" result="BackgroundImageFix"/>
<feColorMatrix in="SourceAlpha" type="matrix" values="0 0 0 0 0 0 0 0 0 0 0 0 0 0 0 0 0 0 127 0" result="hardAlpha"/>
<feOffset dy="4"/>
<feGaussianBlur stdDeviation="2"/>
<feComposite in2="hardAlpha" operator="out"/>
<feColorMatrix type="matrix" values="0 0 0 0 0 0 0 0 0 0 0 0 0 0 0 0 0 0 0.25 0"/>
<feBlend mode="normal" in2="BackgroundImageFix" result="effect1_dropShadow"/>
<feBlend mode="normal" in="SourceGraphic" in2="effect1_dropShadow" result="shape"/>
</filter>
</defs>
</svg>
